#!OML:ASF H:\Punching\Project 1\Capture day 1\Session 1\female.ASF
:FULLY-SPECIFIED
:DEGREES
852
root 1.5613 14.342 2.55327 16.3442 20.1087 2.91073
lowerback 7.36741 1.87315 6.87504
upperback -2.83749 3.56943 4.87469
thorax -7.052 1.57426 0.811288
lowerneck -6.0246 -10.2593 -0.218636
upperneck 12.7464 -14.1699 2.91164
head 5.05371 -6.72926 0.0501625
rclavicle -7.15625e-015 1.59028e-014
rhumerus 26.7041 -10.2554 -61.6375
rradius 54.1962
rwrist -14.9263
rhand -12.7219 -22.5702
rfingers 7.12502
rthumb 13.3612 -52.1218
lclavicle -7.15625e-015 1.59028e-014
lhumerus 26.7963 -45.586 75.8343
lradius 129.444
lwrist 7.55335
lhand -21.8262 9.47018
lfingers 7.12502
lthumb 4.57663 39.4007
rfemur 4.31862 -12.4704 9.05034
rtibia 24.9205
rfoot -30.8036 -28.7179
rtoes -19.0466
lfemur -57.1834 -7.54775 -20.4747
ltibia 48.9454
lfoot -5.5793 -2.03538
ltoes 1.60365
853
root 1.55966 14.3715 2.55547 16.3755 18.9968 2.60998
lowerback 7.29112 1.77286 6.63982
upperback -2.81554 3.39912 4.86756
thorax -7.00073 1.50234 0.957929
lowerneck -6.02749 -9.79757 0.237028
upperneck 12.8753 -13.5829 2.77387
head 5.04371 -6.4285 -0.0213308
rclavicle -3.18055e-014 -5.08889e-014
rhumerus 24.8289 -8.02968 -61.4975
rradius 60.0275
rwrist -18.433
rhand -13.4652 -23.7023
rfingers 7.12502
rthumb 12.6447 -53.2995
lclavicle -3.18055e-014 -5.08889e-014
lhumerus 26.5856 -45.3067 76.1177
lradius 129.565
lwrist 7.95352
lhand -21.9493 9.45417
lfingers 7.12502
lthumb 4.45777 39.3873
rfemur 3.89255 -12.1225 8.98837
rtibia 24.6063
rfoot -30.3371 -27.9742
rtoes -19.2502
lfemur -57.125 -7.46351 -19.7709
ltibia 48.8521
lfoot -5.71155 -0.924495
ltoes 1.09649
854
root 1.55969 14.4024 2.55787 16.4061 17.7069 2.28343
lowerback 7.23454 1.6676 6.35555
upperback -2.76344 3.21804 4.87648
thorax -6.9309 1.42817 1.14938
lowerneck -6.06637 -9.28125 0.69976
upperneck 12.9832 -12.922 2.62417
head 5.03463 -6.09223 -0.0957764
rclavicle -5.20816e-014 -2.54444e-014
rhumerus 23.0469 -5.8817 -61.5654
rradius 65.8763
rwrist -21.4489
rhand -14.094 -24.6573
rfingers 7.12502
rthumb 12.0384 -54.2911
lclavicle -5.20816e-014 -2.54444e-014
lhumerus 26.4048 -44.9778 76.3674
lradius 129.704
lwrist 8.3759
lhand -22.0751 9.42826
lfingers 7.12502
lthumb 4.33628 39.3639
rfemur 3.42214 -11.7046 8.89256
rtibia 24.252
rfoot -29.8229 -27.1425
rtoes -19.5459
lfemur -57.0406 -7.3175 -19.023
ltibia 48.7921
lfoot -5.87751 0.312199
ltoes 0.619149
855
root 1.56145 14.434 2.56066 16.441 16.251 1.92944
lowerback 7.19133 1.58557 6.06149
upperback -2.69773 3.06539 4.85735
thorax -6.85074 1.36741 1.31268
lowerneck -6.09803 -8.74202 1.24034
upperneck 13.0565 -12.2393 2.48866
head 5.01389 -5.74169 -0.17658
rclavicle -4.65156e-014 -4.77083e-014
rhumerus 21.2586 -3.90782 -61.8202
rradius 71.5876
rwrist -23.7588
rhand -14.4195 -25.362
rfingers 7.12502
rthumb 11.7246 -55.0139
lclavicle -4.65156e-014 -4.77083e-014
lhumerus 26.3147 -44.6948 76.5236
lradius 129.858
lwrist 8.82502
lhand -22.198 9.42979
lfingers 7.12502
lthumb 4.21753 39.3678
rfemur 2.90633 -11.215 8.77526
rtibia 23.8578
rfoot -29.2774 -26.238
rtoes -19.909
lfemur -56.9322 -7.10259 -18.237
ltibia 48.7731
lfoot -6.08069 1.65348
ltoes 0.192428
856
root 1.56517 14.4661 2.56361 16.4905 14.6403 1.55035
lowerback 7.15166 1.5109 5.74624
upperback -2.62526 2.91928 4.81834
thorax -6.76386 1.30993 1.46589
lowerneck -6.10597 -8.16542 1.85694
upperneck 13.1047 -11.5156 2.3716
head 4.98298 -5.36725 -0.261029
rclavicle -1.03368e-014 5.88403e-014
rhumerus 19.4658 -2.03985 -62.253
rradius 77.0501
rwrist -25.2727
rhand -14.3697 -25.7873
rfingers 7.12502
rthumb 11.7726 -55.4364
lclavicle -1.03368e-014 5.88403e-014
lhumerus 26.288 -44.4206 76.5958
lradius 130.017
lwrist 9.27294
lhand -22.2982 9.42608
lfingers 7.12502
lthumb 4.12078 39.366
rfemur 2.3377 -10.6586 8.64264
rtibia 23.4269
rfoot -28.708 -25.2726
rtoes -20.3104
lfemur -56.8057 -6.80948 -17.4257
ltibia 48.8004
lfoot -6.32218 3.07129
ltoes -0.171504
857
root 1.5707 14.4981 2.56782 16.5554 12.8861 1.14646
lowerback 7.10672 1.45521 5.42719
upperback -2.55529 2.79586 4.74249
thorax -6.67339 1.26234 1.5797
lowerneck -6.07615 -7.56677 2.56013
upperneck 13.1496 -10.7752 2.29047
head 4.94804 -4.97842 -0.347459
rclavicle 1.03368e-014 -1.59028e-015
rhumerus 17.6187 -0.292596 -62.8504
rradius 82.2052
rwrist -26.0228
rhand -14.0053 -25.9488
rfingers 7.12502
rthumb 12.124 -55.5775
lclavicle 1.03368e-014 -1.59028e-015
lhumerus 26.3361 -44.1989 76.5726
lradius 130.186
lwrist 9.70165
lhand -22.379 9.42776
lfingers 7.12502
lthumb 4.04275 39.3691
rfemur 1.7195 -10.0269 8.50439
rtibia 22.9676
rfoot -28.1305 -24.267
rtoes -20.7191
lfemur -56.6523 -6.42553 -16.6014
ltibia 48.8742
lfoot -6.60591 4.53539
ltoes -0.464423
858
root 1.57773 14.5298 2.57314 16.644 11.011 0.70875
lowerback 7.04838 1.40809 5.11356
upperback -2.49355 2.68261 4.63595
thorax -6.58134 1.2183 1.65729
lowerneck -6.02574 -6.94141 3.3439
upperneck 13.2282 -10.0132 2.24612
head 4.92467 -4.57159 -0.436489
rclavicle 2.78299e-015 3.02153e-014
rhumerus 15.7166 1.36377 -63.6042
rradius 87.0424
rwrist -26.1484
rhand -13.3995 -25.8448
rfingers 7.12502
rthumb 12.708 -55.4382
lclavicle 2.78299e-015 3.02153e-014
lhumerus 26.436 -44.0197 76.4642
lradius 130.368
lwrist 10.0844
lhand -22.4334 9.42483
lfingers 7.12502
lthumb 3.99027 39.3672
rfemur 1.04279 -9.31 8.38564
rtibia 22.4912
rfoot -27.5571 -23.2513
rtoes -21.1006
lfemur -56.4799 -5.94195 -15.7642
ltibia 48.9918
lfoot -6.92886 6.00894
ltoes -0.701925
859
root 1.58566 14.5609 2.57959 16.764 9.0458 0.261646
lowerback 6.98009 1.3526 4.7794
upperback -2.44267 2.55597 4.51041
thorax -6.49452 1.16761 1.7283
lowerneck -5.98411 -6.28147 4.17303
upperneck 13.3736 -9.2187 2.23985
head 4.93073 -4.14142 -0.523565
rclavicle -1.43125e-014 0
rhumerus 13.779 2.97186 -64.4762
rradius 91.5809
rwrist -25.8841
rhand -12.6693 -25.5559
rfingers 7.12502
rthumb 13.412 -55.1041
lclavicle -1.43125e-014 0
lhumerus 26.5643 -43.8436 76.3044
lradius 130.559
lwrist 10.4058
lhand -22.4637 9.39833
lfingers 7.12502
lthumb 3.96096 39.3413
rfemur 0.313779 -8.52845 8.27024
rtibia 22.0129
rfoot -26.9988 -22.2417
rtoes -21.4297
lfemur -56.2848 -5.36962 -14.9467
ltibia 49.1449
lfoot -7.28902 7.45915
ltoes -0.884258
860
root 1.59421 14.5908 2.5872 16.9186 7.01018 -0.194141
lowerback 6.89592 1.27968 4.42308
upperback -2.402 2.40402 4.37557
thorax -6.40921 1.10483 1.80539
lowerneck -5.96719 -5.58328 5.02666
upperneck 13.6066 -8.38772 2.27141
head 4.97694 -3.68571 -0.605549
rclavicle -1.47101e-014 -5.08889e-014
rhumerus 11.8336 4.55714 -65.4265
rradius 95.834
rwrist -25.4732
rhand -11.8992 -25.1271
rfingers 7.12502
rthumb 14.1542 -54.6249
lclavicle -1.47101e-014 -5.08889e-014
lhumerus 26.7013 -43.6518 76.1134
lradius 130.761
lwrist 10.6343
lhand -22.4867 9.35817
lfingers 7.12502
lthumb 3.93876 39.3015
rfemur -0.472752 -7.68964 8.16231
rtibia 21.5509
rfoot -26.4565 -21.2574
rtoes -21.7182
lfemur -56.0674 -4.70507 -14.1587
ltibia 49.3271
lfoot -7.68754 8.85784
ltoes -0.993958
861
root 1.6032 14.6192 2.59566 17.1059 4.92225 -0.646384
lowerback 6.80289 1.18591 4.04175
upperback -2.37538 2.22285 4.22957
thorax -6.33313 1.02798 1.88849
lowerneck -5.96489 -4.84958 5.90622
upperneck 13.9229 -7.52343 2.3312
head 5.06046 -3.20636 -0.684104
rclavicle 1.59028e-015 -3.65764e-014
rhumerus 9.87426 6.13836 -66.4133
rradius 99.8419
rwrist -25.1304
rhand -11.1724 -24.6254
rfingers 7.12502
rthumb 14.8544 -54.0729
lclavicle 1.59028e-015 -3.65764e-014
lhumerus 26.8032 -43.4459 75.9282
lradius 130.976
lwrist 10.753
lhand -22.5248 9.31914
lfingers 7.12502
lthumb 3.90196 39.2632
rfemur -1.31356 -6.80554 8.04776
rtibia 21.1224
rfoot -25.9366 -20.2996
rtoes -21.9615
lfemur -55.8234 -3.95286 -13.4204
ltibia 49.5305
lfoot -8.12165 10.1852
ltoes -1.02689
862
root 1.61248 14.6456 2.60504 17.3163 2.7986 -1.08565
lowerback 6.7038 1.04282 3.59798
upperback -2.34178 1.97225 4.10998
thorax -6.24739 0.919909 2.04265
lowerneck -6.02352 -4.05379 6.76283
upperneck 14.3309 -6.588 2.3972
head 5.19373 -2.68767 -0.756188
rclavicle -2.38542e-015 6.83819e-014
rhumerus 8.00309 7.81287 -67.3794
rradius 103.6
rwrist -24.9979
rhand -10.5481 -24.114
rfingers 7.12502
rthumb 15.4558 -53.5161
lclavicle -2.38542e-015 6.83819e-014
lhumerus 26.8534 -43.0988 75.7871
lradius 131.19
lwrist 10.8034
lhand -22.5394 9.19224
lfingers 7.12502
lthumb 3.88787 39.1365
rfemur -2.16635 -5.88861 7.9127
rtibia 20.6825
rfoot -25.4167 -19.3604
rtoes -22.1734
lfemur -55.536 -3.1222 -12.747
ltibia 49.7313
lfoot -8.58008 11.4318
ltoes -0.991926
863
root 1.62183 14.6696 2.6154 17.5406 0.651207 -1.51118
lowerback 6.60889 0.876323 3.12672
upperback -2.31047 1.68941 3.98234
thorax -6.16398 0.79637 2.20733
lowerneck -6.11005 -3.22868 7.64883
upperneck 14.8019 -5.6287 2.46899
head 5.36096 -2.15115 -0.829497
rclavicle 9.54166e-015 3.18055e-014
rhumerus 6.16789 9.50571 -68.3199
rradius 107.113
rwrist -25.1314
rhand -10.0746 -23.6257
rfingers 7.12502
rthumb 15.9119 -52.992
lclavicle 9.54166e-015 3.18055e-014
lhumerus 26.8696 -42.7004 75.6679
lradius 131.423
lwrist 10.8194
lhand -22.5446 9.02293
lfingers 7.12502
lthumb 3.88287 38.9673
rfemur -3.0347 -4.94269 7.75226
rtibia 20.2681
rfoot -24.9224 -18.4313
rtoes -22.3562
lfemur -55.205 -2.21985 -12.142
ltibia 49.9402
lfoot -9.06985 12.5944
ltoes -0.922331
864
root 1.63177 14.6974 2.62664 17.7714 -1.50414 -1.92026
lowerback 6.52891 0.680888 2.62816
upperback -2.28035 1.36741 3.84589
thorax -6.08686 0.653877 2.38231
lowerneck -6.19807 -2.37541 8.57565
upperneck 15.3021 -4.64345 2.53526
head 5.54773 -1.59748 -0.906788
rclavicle -1.82882e-014 -1.66979e-014
rhumerus 4.38848 11.2197 -69.2349
rradius 110.379
rwrist -25.5305
rhand -9.71264 -23.1408
rfingers 7.12502
rthumb 16.2604 -52.479
lclavicle -1.82882e-014 -1.66979e-014
lhumerus 26.8483 -42.2437 75.5596
lradius 131.682
lwrist 10.8245
lhand -22.5466 8.83206
lfingers 7.12502
lthumb 3.88096 38.7765
rfemur -3.89973 -3.97706 7.56613
rtibia 19.8538
rfoot -24.4401 -17.5029
rtoes -22.5104
lfemur -54.801 -1.264 -11.6109
ltibia 50.1299
lfoot -9.59017 13.6777
ltoes -0.848221
865
root 1.64087 14.7183 2.63827 17.9896 -3.64968 -2.30904
lowerback 6.47215 0.465307 2.10989
upperback -2.24534 1.01828 3.6948
thorax -6.01346 0.49795 2.55575
lowerneck -6.28321 -1.50935 9.546
upperneck 15.8135 -3.6514 2.59107
head 5.74835 -1.03684 -0.989905
rclavicle 8.15017e-015 -1.90833e-014
rhumerus 2.67858 12.901 -70.1211
rradius 113.377
rwrist -26.1765
rhand -9.41339 -22.6578
rfingers 7.12502
rthumb 16.5485 -51.9722
lclavicle 8.15017e-015 -1.90833e-014
lhumerus 26.8266 -41.7494 75.4309
lradius 131.976
lwrist 10.8442
lhand -22.5472 8.64298
lfingers 7.12502
lthumb 3.8804 38.5874
rfemur -4.72571 -2.99735 7.3435
rtibia 19.44
rfoot -23.9886 -16.5722
rtoes -22.6317
lfemur -54.3605 -0.263139 -11.1491
ltibia 50.3316
lfoot -10.1217 14.6769
ltoes -0.799396
866
root 1.64921 14.7376 2.65021 18.1951 -5.76445 -2.6888
lowerback 6.44021 0.232983 1.58699
upperback -2.20913 0.647783 3.52864
thorax -5.94804 0.330874 2.71822
lowerneck -6.34139 -0.641381 10.5699
upperneck 16.3111 -2.66236 2.62723
head 5.95137 -0.475512 -1.08274
rclavicle -2.98177e-015 0
rhumerus 1.04517 14.5038 -70.9859
rradius 116.101
rwrist -27.0386
rhand -9.0959 -22.1748
rfingers 7.12502
rthumb 16.8541 -51.4634
lclavicle -2.98177e-015 0
lhumerus 26.8077 -41.2514 75.2612
lradius 132.311
lwrist 10.8724
lhand -22.5394 8.46154
lfingers 7.12502
lthumb 3.88789 38.4058
rfemur -5.50393 -1.99686 7.10752
rtibia 19.0067
rfoot -23.5594 -15.655
rtoes -22.7055
lfemur -53.8706 0.768676 -10.7428
ltibia 50.5231
lfoot -10.6512 15.5976
ltoes -0.821412
